<svg width="220" height="257" viewBox="0 0 220 257" fill="none" xmlns="http://www.w3.org/2000/svg">
<g clip-path="url(#clip0_259_51)">
<path d="M0.346066 175.823L0 176.712L192.155 251.735L192.501 250.845L0.346066 175.823Z" fill="#CACACA"/>
<path d="M159.839 11.8485L84.5811 31.7122C84.2802 31.7976 84.0022 31.9496 83.7679 32.1571C83.5064 32.3863 83.2833 32.6561 83.1071 32.9561C82.9135 33.281 82.7642 33.6304 82.6631 33.9949C82.5559 34.3768 82.501 34.7714 82.5 35.168V146.949C82.5002 147.339 82.5551 147.727 82.6631 148.102C82.7623 148.452 82.9119 148.784 83.1071 149.091C83.2823 149.369 83.5061 149.614 83.7679 149.813C84.0061 149.995 84.2854 150.115 84.5811 150.163L159.839 161.258C160.275 161.324 160.721 161.29 161.142 161.157C161.543 161.028 161.909 160.81 162.213 160.518C162.528 160.214 162.775 159.846 162.938 159.439C163.118 158.991 163.209 158.511 163.206 158.028V14.6868C163.211 14.2132 163.12 13.7434 162.938 13.306C162.778 12.9222 162.529 12.5818 162.213 12.3122C161.905 12.0537 161.536 11.8767 161.142 11.7974C160.71 11.7137 160.263 11.7312 159.839 11.8485Z" fill="#F2F2F2"/>
<path d="M86.3414 34.9233C86.1291 34.9858 85.9335 35.0951 85.7687 35.2432C85.5854 35.4051 85.4291 35.5955 85.3058 35.807C85.1706 36.037 85.067 36.2843 84.9978 36.5422C84.9247 36.8115 84.889 37.0895 84.8915 37.3686V144.699C84.8885 144.974 84.9243 145.248 84.9978 145.512C85.0657 145.759 85.1693 145.994 85.3053 146.211C85.4276 146.408 85.5844 146.581 85.7679 146.722C85.9354 146.852 86.132 146.938 86.3406 146.974L156.755 156.491C157.055 156.528 157.359 156.494 157.644 156.393C157.918 156.295 158.165 156.135 158.368 155.927C158.58 155.71 158.745 155.45 158.852 155.166C158.97 154.852 159.028 154.519 159.021 154.183V19.2279C159.029 18.8989 158.972 18.5716 158.852 18.265C158.747 17.9958 158.582 17.7545 158.368 17.5599C158.163 17.3743 157.914 17.2432 157.644 17.1784C157.352 17.1107 157.047 17.1128 156.755 17.1846L86.3414 34.9233Z" fill="white"/>
<path d="M89.4702 39.104C89.3257 39.1415 89.1928 39.2148 89.0837 39.3172C88.9575 39.4341 88.8513 39.5712 88.7695 39.723C88.6761 39.8934 88.6049 40.0753 88.5577 40.2641C88.5057 40.4664 88.479 40.6744 88.4783 40.8833V55.8252C88.4772 56.0232 88.5034 56.2205 88.5561 56.4114C88.6001 56.574 88.6717 56.7277 88.7679 56.8656C88.8487 56.9828 88.957 57.0779 89.0832 57.1427C89.2029 57.2019 89.3383 57.2211 89.4696 57.1976L152.165 46.3301C152.372 46.2918 152.568 46.2071 152.738 46.0823C152.921 45.9484 153.079 45.7836 153.207 45.5952C153.345 45.3934 153.452 45.1719 153.524 44.9381C153.601 44.6933 153.641 44.4382 153.641 44.1814V25.8856C153.643 25.6442 153.604 25.4043 153.524 25.1765C153.457 24.9803 153.348 24.8006 153.207 24.6492C153.077 24.5085 152.911 24.4055 152.728 24.3512C152.545 24.2968 152.35 24.293 152.165 24.3402L89.4702 39.104Z" fill="#F2F2F2"/>
<path d="M89.4705 64.7447C89.328 64.7709 89.1938 64.8313 89.0793 64.9209C88.9536 65.0182 88.846 65.1373 88.7617 65.2727C88.6683 65.4206 88.597 65.5814 88.5499 65.7502C88.5001 65.9302 88.4761 66.1165 88.4784 66.3035V98.2952C88.4761 98.478 88.5009 98.6602 88.552 98.8357C88.5977 98.9933 88.6693 99.142 88.7638 99.2758C88.8477 99.3959 88.956 99.4967 89.0814 99.5715C89.1999 99.6418 89.3349 99.6786 89.4724 99.6783L152.165 97.8761C152.367 97.8663 152.565 97.8116 152.744 97.716C152.925 97.6192 153.085 97.488 153.216 97.3297C153.353 97.1648 153.459 96.9765 153.531 96.7738C153.606 96.5597 153.644 96.3338 153.641 96.1065V56.9336C153.645 56.7122 153.608 56.4921 153.531 56.2847C153.461 56.0978 153.354 55.9276 153.216 55.7848C153.084 55.6489 152.922 55.5453 152.744 55.4821C152.558 55.4172 152.359 55.3975 152.163 55.4247L89.4705 64.7447Z" fill="#F2F2F2"/>
<path d="M94.4565 40.224L144.076 29.0928V32.8539L94.4565 43.4491V40.224Z" fill="white"/>
<path d="M95.0543 47.2753L144.674 36.8691V38.6862L95.0543 48.8328V47.2753Z" fill="white"/>
<path d="M95.0543 49.6867L144.674 39.8601V41.6551L95.0543 51.2256V49.6867Z" fill="white"/>
<path d="M95.0543 52.6978L144.674 43.449V45.2202L95.0543 54.2162V52.6978Z" fill="white"/>
<path d="M122.15 98.9373L147.385 98.2168C147.472 98.2142 147.559 98.1968 147.641 98.1652C147.724 98.1333 147.802 98.0886 147.872 98.0328C147.944 97.9748 148.008 97.9067 148.061 97.8305C148.117 97.75 148.161 97.6621 148.194 97.5694C148.261 97.3817 148.278 97.1797 148.244 96.9832C148.228 96.8885 148.199 96.7963 148.158 96.7092C148.119 96.6234 148.066 96.5439 148.004 96.4734L131.368 77.8761C131.296 77.7937 131.206 77.7293 131.105 77.688C131.01 77.6502 130.907 77.6355 130.806 77.6451C130.7 77.6553 130.599 77.6886 130.507 77.7426C130.406 77.8028 130.316 77.8825 130.245 77.9771L126.375 83.0205C126.229 83.2138 126.047 83.376 125.839 83.4979C125.653 83.6063 125.446 83.6715 125.232 83.6889C125.025 83.7047 124.818 83.6705 124.627 83.5892C124.422 83.5005 124.241 83.3656 124.096 83.1948L112.69 69.9781C112.626 69.9029 112.546 69.8443 112.455 69.8073C112.37 69.7737 112.279 69.762 112.189 69.7731C112.093 69.7856 112.002 69.8193 111.922 69.872C111.831 69.9321 111.751 70.0092 111.688 70.0993L91.6487 98.2421C91.6038 98.3058 91.567 98.375 91.5395 98.4481C91.5108 98.5237 91.4907 98.6023 91.4793 98.6824C91.4675 98.764 91.4645 98.8467 91.4702 98.929C91.4759 99.011 91.4908 99.0921 91.5147 99.1708C91.5371 99.2455 91.5689 99.317 91.6093 99.3835C91.6456 99.4436 91.6904 99.4979 91.7425 99.5447C91.7904 99.5878 91.8455 99.6221 91.9052 99.646C91.9632 99.6688 92.0252 99.6797 92.0874 99.6779L122.18 98.8068L122.15 98.9373Z" fill="white"/>
<path d="M96.8288 67.9908C97.1457 67.9469 97.4683 67.9928 97.7616 68.1235C98.0603 68.2593 98.3235 68.4654 98.5299 68.7249C98.7608 69.0158 98.9365 69.3483 99.0481 69.7053C99.1771 70.1125 99.2416 70.5383 99.2391 70.9665C99.2392 71.41 99.1748 71.851 99.0481 72.2751C98.9318 72.6701 98.757 73.0444 98.5299 73.385C98.3243 73.6959 98.0642 73.965 97.7629 74.1789C97.4855 74.3761 97.1653 74.5011 96.8301 74.543C96.5131 74.5801 96.1923 74.5278 95.9022 74.3917C95.6082 74.2501 95.3503 74.0406 95.1487 73.7797C94.9229 73.4894 94.751 73.159 94.6416 72.8051C94.5166 72.4035 94.4542 71.9841 94.4566 71.5625C94.4565 71.126 94.5188 70.6918 94.6416 70.2738C94.7552 69.8829 94.9257 69.5119 95.1474 69.1731C95.3491 68.862 95.6045 68.591 95.9009 68.3735C96.1756 68.1713 96.494 68.04 96.8288 67.9908Z" fill="white"/>
<path d="M106.896 53.6578C106.659 53.702 106.435 53.7996 106.241 53.9433C106.033 54.0975 105.853 54.2867 105.709 54.5025C105.553 54.7344 105.432 54.9882 105.35 55.2557C105.263 55.5368 105.218 55.8293 105.217 56.1236V176.886C105.22 177.472 105.39 178.044 105.708 178.535C105.852 178.759 106.032 178.958 106.24 179.125C106.432 179.279 106.656 179.389 106.895 179.448L196.257 200.099C196.615 200.186 196.987 200.196 197.349 200.129C197.675 200.068 197.982 199.931 198.245 199.73C198.505 199.528 198.714 199.267 198.852 198.969C199.003 198.639 199.08 198.28 199.076 197.917V40.4521C199.079 40.085 199.002 39.7217 198.852 39.3868C198.713 39.079 198.505 38.8069 198.245 38.591C197.984 38.3756 197.678 38.2215 197.349 38.1402C196.991 38.053 196.62 38.042 196.257 38.1077L106.896 53.6578Z" fill="#E6E6E6"/>
<path d="M109.293 57.1127C109.052 57.1601 108.824 57.2616 108.628 57.4096C108.417 57.5675 108.235 57.7609 108.09 57.9813C107.934 58.2172 107.813 58.4753 107.733 58.7469C107.648 59.0324 107.606 59.3292 107.609 59.6273V175.241C107.605 175.835 107.772 176.416 108.09 176.916C108.235 177.146 108.417 177.35 108.628 177.521C108.823 177.68 109.05 177.794 109.293 177.857L192.749 196.526C193.103 196.603 193.47 196.603 193.824 196.526C194.145 196.456 194.445 196.311 194.699 196.102C194.953 195.893 195.154 195.626 195.284 195.324C195.428 194.989 195.497 194.628 195.488 194.264V45.905C195.496 45.5373 195.427 45.172 195.284 44.8332C195.153 44.522 194.953 44.2444 194.701 44.021C194.448 43.7977 194.148 43.6342 193.824 43.5427C193.474 43.4453 193.108 43.4235 192.749 43.4788L109.293 57.1127Z" fill="white"/>
<path d="M119.775 72.8021C119.662 72.8151 119.555 72.8535 119.46 72.9141C119.361 72.9779 119.274 73.0591 119.204 73.1539C119.129 73.2552 119.07 73.3677 119.031 73.4872C118.989 73.6137 118.968 73.7459 118.967 73.879V78.419C118.967 78.548 118.988 78.6762 119.031 78.7982C119.069 78.9075 119.128 79.0088 119.204 79.0968C119.274 79.1781 119.361 79.243 119.46 79.2867C119.559 79.3295 119.667 79.3469 119.774 79.3373L175.837 74.458C175.989 74.4439 176.137 74.3995 176.271 74.3274C176.406 74.2556 176.526 74.1604 176.627 74.0464C176.729 73.9306 176.811 73.798 176.867 73.6546C176.925 73.5077 176.956 73.3515 176.957 73.1939V67.8321C176.957 67.6798 176.927 67.5289 176.868 67.3881C176.813 67.2577 176.731 67.14 176.628 67.0426C176.526 66.9473 176.405 66.8749 176.272 66.8305C176.132 66.7838 175.983 66.7681 175.837 66.7842L119.775 72.8021Z" fill="#FCA087"/>
<path d="M119.172 88.3333C119.143 88.3351 119.116 88.3438 119.091 88.3587C119.066 88.3741 119.044 88.3943 119.027 88.4182C119.008 88.4438 118.993 88.4725 118.983 88.503C118.973 88.5358 118.967 88.5701 118.967 88.6046V90.458C118.967 90.4918 118.973 90.5255 118.983 90.5575C118.993 90.5866 119.008 90.6136 119.027 90.6372C119.045 90.6591 119.067 90.6768 119.091 90.6891C119.116 90.7013 119.144 90.7068 119.172 90.7052L176.674 87.5171C176.713 87.5149 176.75 87.5047 176.784 87.4871C176.818 87.4695 176.848 87.4457 176.874 87.4167C176.927 87.3562 176.956 87.2778 176.957 87.1965V85.0115C176.957 84.9713 176.949 84.9315 176.934 84.8942C176.92 84.8594 176.9 84.8277 176.874 84.8011C176.848 84.7745 176.817 84.7539 176.782 84.7406C176.748 84.7273 176.711 84.7217 176.674 84.7242L119.172 88.3333Z" fill="#CCCCCC"/>
<path d="M119.172 93.7769C119.143 93.7782 119.116 93.7862 119.091 93.8003C119.066 93.8149 119.044 93.8342 119.027 93.8572C119.008 93.8819 118.993 93.9095 118.983 93.9391C118.973 93.9709 118.967 94.0042 118.967 94.0377V95.8431C118.967 95.8763 118.973 95.9093 118.983 95.9407C118.993 95.9697 119.008 95.9967 119.027 96.0204C119.045 96.042 119.067 96.0596 119.091 96.072C119.116 96.0843 119.144 96.0901 119.172 96.089L176.674 94.0247C176.712 94.0235 176.75 94.0144 176.784 93.9981C176.818 93.9816 176.848 93.9589 176.874 93.9311C176.927 93.8729 176.957 93.7971 176.957 93.7184V91.5887C176.957 91.5494 176.949 91.5105 176.934 91.4741C176.92 91.4399 176.9 91.4087 176.874 91.3824C176.848 91.3566 176.818 91.3362 176.784 91.3226C176.749 91.3086 176.712 91.3023 176.674 91.304L119.172 93.7769Z" fill="#CCCCCC"/>
<path d="M119.171 99.8543C119.143 99.8549 119.115 99.8621 119.091 99.8752C119.066 99.8887 119.044 99.9069 119.027 99.9285C119.008 99.9518 118.993 99.9781 118.983 100.006C118.973 100.037 118.967 100.068 118.967 100.101V101.832C118.967 101.864 118.973 101.895 118.983 101.926C118.993 101.953 119.008 101.979 119.027 102.002C119.044 102.023 119.066 102.041 119.091 102.053C119.116 102.065 119.144 102.071 119.172 102.071L176.674 101.092C176.712 101.091 176.75 101.082 176.784 101.066C176.818 101.051 176.848 101.03 176.874 101.004C176.9 100.977 176.92 100.946 176.934 100.912C176.949 100.877 176.957 100.839 176.957 100.801V98.7604C176.957 98.7226 176.949 98.6852 176.934 98.6501C176.92 98.617 176.9 98.5868 176.874 98.5611C176.849 98.5355 176.818 98.515 176.784 98.5009C176.749 98.4873 176.712 98.4808 176.674 98.4821L119.171 99.8543Z" fill="#CCCCCC"/>
<path d="M119.171 111.642C119.143 111.641 119.115 111.648 119.091 111.662C119.066 111.676 119.044 111.695 119.026 111.719C119.007 111.744 118.993 111.773 118.983 111.804C118.973 111.837 118.967 111.872 118.967 111.907V113.83C118.967 113.865 118.973 113.901 118.983 113.934C118.993 113.965 119.008 113.994 119.027 114.019C119.045 114.043 119.067 114.063 119.092 114.078C119.116 114.093 119.144 114.1 119.172 114.101L176.674 115.231C176.712 115.232 176.749 115.224 176.784 115.208C176.818 115.193 176.848 115.17 176.874 115.142C176.9 115.114 176.92 115.08 176.934 115.043C176.949 115.004 176.957 114.962 176.957 114.92V112.655C176.957 112.613 176.949 112.571 176.934 112.531C176.92 112.494 176.9 112.459 176.874 112.43C176.848 112.401 176.818 112.378 176.784 112.361C176.75 112.344 176.712 112.335 176.674 112.335L119.171 111.642Z" fill="#CCCCCC"/>
<path d="M119.171 117.624C119.143 117.623 119.116 117.628 119.091 117.64C119.066 117.653 119.044 117.67 119.026 117.691C119.007 117.713 118.992 117.739 118.983 117.766C118.972 117.796 118.967 117.826 118.967 117.857V119.569C118.967 119.601 118.973 119.633 118.983 119.663C118.993 119.691 119.008 119.717 119.027 119.74C119.045 119.762 119.067 119.78 119.092 119.794C119.116 119.807 119.143 119.814 119.172 119.815L176.674 121.811C176.712 121.812 176.749 121.806 176.784 121.792C176.818 121.779 176.848 121.76 176.874 121.735C176.9 121.71 176.92 121.68 176.934 121.647C176.949 121.613 176.957 121.576 176.957 121.538V119.52C176.957 119.482 176.949 119.444 176.934 119.409C176.92 119.376 176.9 119.345 176.874 119.318C176.848 119.292 176.818 119.271 176.784 119.255C176.75 119.24 176.712 119.231 176.674 119.23L119.171 117.624Z" fill="#CCCCCC"/>
<path d="M119.171 123.606C119.143 123.605 119.116 123.61 119.092 123.622C119.067 123.634 119.045 123.651 119.027 123.672C119.008 123.695 118.993 123.721 118.983 123.749C118.973 123.78 118.967 123.812 118.967 123.845V125.626C118.967 125.659 118.973 125.692 118.983 125.723C118.993 125.753 119.008 125.78 119.027 125.805C119.045 125.828 119.066 125.847 119.092 125.861C119.116 125.876 119.143 125.884 119.172 125.885L176.674 128.989C176.711 128.991 176.748 128.985 176.782 128.972C176.817 128.959 176.848 128.939 176.874 128.914C176.9 128.888 176.92 128.857 176.934 128.824C176.949 128.788 176.957 128.75 176.957 128.711V126.611C176.956 126.533 176.927 126.459 176.874 126.401C176.848 126.373 176.818 126.351 176.784 126.334C176.75 126.317 176.713 126.308 176.674 126.306L119.171 123.606Z" fill="#CCCCCC"/>
<path d="M119.171 129.588C119.143 129.586 119.116 129.591 119.091 129.601C119.066 129.612 119.044 129.628 119.027 129.647C119.008 129.668 118.993 129.692 118.983 129.718C118.973 129.747 118.967 129.777 118.967 129.807V131.468C118.967 131.499 118.973 131.529 118.983 131.559C118.993 131.586 119.008 131.612 119.027 131.635C119.045 131.657 119.066 131.675 119.092 131.689C119.116 131.703 119.143 131.712 119.172 131.714L176.674 135.569C176.712 135.571 176.749 135.566 176.784 135.554C176.818 135.543 176.848 135.525 176.874 135.502C176.9 135.478 176.92 135.45 176.934 135.419C176.949 135.386 176.957 135.35 176.957 135.314V133.357C176.957 133.32 176.949 133.283 176.934 133.249C176.92 133.216 176.9 133.185 176.874 133.159C176.848 133.132 176.818 133.111 176.784 133.095C176.75 133.078 176.713 133.069 176.674 133.066L119.171 129.588Z" fill="#CCCCCC"/>
<path d="M119.171 134.972C119.143 134.969 119.116 134.974 119.091 134.985C119.066 134.997 119.044 135.015 119.027 135.036C119.008 135.059 118.993 135.086 118.983 135.114C118.973 135.146 118.967 135.18 118.967 135.214V137.074C118.967 137.109 118.973 137.143 118.983 137.176C118.993 137.207 119.008 137.237 119.027 137.263C119.045 137.287 119.066 137.308 119.092 137.324C119.116 137.34 119.143 137.349 119.172 137.352L176.674 142.746C176.711 142.75 176.749 142.745 176.784 142.732C176.818 142.72 176.848 142.701 176.874 142.675C176.9 142.649 176.92 142.618 176.934 142.584C176.949 142.547 176.957 142.507 176.957 142.467V140.273C176.957 140.232 176.949 140.191 176.934 140.152C176.92 140.115 176.9 140.08 176.874 140.05C176.848 140.02 176.818 139.995 176.784 139.976C176.75 139.958 176.713 139.946 176.674 139.943L119.171 134.972Z" fill="#CCCCCC"/>
<path d="M119.171 140.954C119.144 140.951 119.116 140.955 119.091 140.966C119.066 140.977 119.044 140.994 119.027 141.015C119.008 141.039 118.993 141.065 118.983 141.094C118.973 141.127 118.967 141.161 118.967 141.195V143.081C118.967 143.116 118.973 143.152 118.983 143.185C118.993 143.217 119.008 143.247 119.027 143.274C119.045 143.299 119.066 143.321 119.092 143.338C119.116 143.354 119.143 143.364 119.172 143.367L176.674 149.924C176.711 149.928 176.749 149.924 176.784 149.912C176.817 149.9 176.848 149.881 176.874 149.856C176.9 149.83 176.921 149.799 176.934 149.765C176.949 149.727 176.957 149.687 176.957 149.646V147.422C176.956 147.38 176.949 147.338 176.934 147.299C176.92 147.261 176.9 147.225 176.874 147.194C176.848 147.163 176.818 147.138 176.784 147.118C176.75 147.098 176.713 147.086 176.674 147.082L119.171 140.954Z" fill="#CCCCCC"/>
<path d="M119.171 146.936C119.144 146.932 119.116 146.936 119.091 146.946C119.066 146.956 119.045 146.971 119.027 146.991C119.008 147.013 118.993 147.039 118.983 147.066C118.973 147.097 118.967 147.129 118.967 147.162V148.954C118.967 148.988 118.973 149.022 118.983 149.054C118.993 149.084 119.008 149.113 119.027 149.139C119.045 149.163 119.066 149.184 119.092 149.2C119.116 149.216 119.143 149.227 119.172 149.23L176.674 156.503C176.711 156.508 176.749 156.505 176.784 156.494C176.818 156.483 176.848 156.465 176.874 156.441C176.9 156.417 176.921 156.388 176.934 156.355C176.949 156.32 176.957 156.282 176.957 156.243V154.13C176.956 154.09 176.949 154.05 176.934 154.013C176.92 153.976 176.9 153.942 176.874 153.912C176.848 153.882 176.818 153.857 176.784 153.838C176.75 153.819 176.713 153.806 176.674 153.801L119.171 146.936Z" fill="#CCCCCC"/>
<path d="M119.171 152.918C119.144 152.914 119.116 152.917 119.091 152.927C119.066 152.937 119.044 152.952 119.027 152.972C119.008 152.994 118.993 153.019 118.983 153.047C118.973 153.078 118.967 153.111 118.967 153.143V154.963C118.967 154.998 118.973 155.032 118.983 155.064C118.993 155.095 119.008 155.125 119.027 155.151C119.045 155.176 119.066 155.198 119.092 155.215C119.116 155.232 119.143 155.243 119.172 155.247L176.674 163.681C176.711 163.686 176.748 163.684 176.784 163.673C176.817 163.663 176.848 163.646 176.874 163.622C176.9 163.598 176.921 163.569 176.934 163.536C176.949 163.5 176.957 163.461 176.957 163.423V161.277C176.956 161.236 176.949 161.195 176.934 161.157C176.92 161.12 176.9 161.085 176.874 161.054C176.848 161.023 176.818 160.997 176.784 160.977C176.75 160.957 176.713 160.944 176.674 160.938L119.171 152.918Z" fill="#CCCCCC"/>
<path d="M119.171 158.9C119.144 158.896 119.116 158.898 119.091 158.908C119.066 158.917 119.044 158.931 119.027 158.95C119.008 158.971 118.993 158.995 118.983 159.021C118.973 159.051 118.967 159.082 118.967 159.113V160.864C118.967 160.897 118.973 160.93 118.983 160.961C118.993 160.991 119.008 161.02 119.027 161.046C119.045 161.07 119.066 161.091 119.092 161.108C119.115 161.125 119.143 161.135 119.172 161.14L176.674 170.26C176.711 170.266 176.748 170.264 176.784 170.255C176.817 170.246 176.848 170.23 176.874 170.208C176.9 170.185 176.921 170.157 176.934 170.126C176.949 170.091 176.957 170.054 176.957 170.017V167.953C176.956 167.914 176.949 167.875 176.934 167.838C176.92 167.801 176.9 167.767 176.874 167.737C176.848 167.707 176.818 167.682 176.784 167.662C176.75 167.642 176.713 167.629 176.674 167.622L119.171 158.9Z" fill="#CCCCCC"/>
<path d="M186.263 148.81C190.727 149.506 195.023 151.027 198.932 153.297C207.149 158.067 213.57 165.414 217.202 174.205C219.018 178.583 219.968 183.273 219.998 188.014C220.047 192.39 219.09 196.719 217.202 200.666C215.475 204.221 212.901 207.295 209.707 209.616C206.511 211.911 202.819 213.416 198.932 214.011C194.703 214.645 190.388 214.387 186.264 213.255C181.922 212.086 177.819 210.164 174.14 207.576C170.522 205.042 167.311 201.969 164.62 198.464C161.978 195.045 159.875 191.241 158.384 187.184C156.917 183.218 156.156 179.025 156.133 174.796C156.098 170.864 156.864 166.965 158.384 163.34C159.795 159.986 161.945 156.996 164.674 154.594C167.403 152.192 170.639 150.441 174.14 149.471C178.088 148.389 182.221 148.164 186.263 148.81Z" fill="#FCA087"/>
<path d="M183.247 193.937L173.977 179.665L179.33 176.475L183.766 183.215L199.288 169.841L204.672 175.872L183.247 193.937Z" fill="white"/>
<path d="M115.566 177.306L113.891 154.046L116.9 132.249L108.354 131.671L106.667 155.749L111.434 178.391C111.028 178.953 110.806 179.627 110.797 180.321C110.788 181.015 110.993 181.695 111.384 182.268C111.776 182.841 112.334 183.278 112.983 183.521C113.632 183.763 114.341 183.799 115.011 183.623C115.681 183.447 116.28 183.068 116.727 182.538C117.174 182.008 117.447 181.352 117.508 180.66C117.568 179.969 117.414 179.276 117.067 178.675C116.719 178.075 116.195 177.597 115.566 177.306Z" fill="#9F616A"/>
<path d="M107.263 134.804L109.27 126.103C109.654 124.437 110.66 122.981 112.081 122.034C113.503 121.087 115.231 120.72 116.914 121.009C118.596 121.297 120.105 122.22 121.131 123.587C122.156 124.954 122.621 126.662 122.43 128.361L121.325 138.193L107.263 134.804Z" fill="#CBCBCB"/>
<path d="M123.084 253.088L127.113 253.087L129.03 237.519L123.084 237.52L123.084 253.088Z" fill="#9F616A"/>
<path d="M122.057 251.77L129.991 251.769C131.332 251.769 132.618 252.303 133.567 253.253C134.515 254.203 135.048 255.491 135.048 256.835V256.999L122.057 257L122.057 251.77Z" fill="#2F2E41"/>
<path d="M143.156 252.955L147.029 251.844L144.593 236.349L138.876 237.989L143.156 252.955Z" fill="#9F616A"/>
<path d="M141.806 251.972L149.433 249.783C150.723 249.413 152.106 249.571 153.279 250.223C154.451 250.875 155.318 251.966 155.687 253.258L155.732 253.416L143.244 257L141.806 251.972Z" fill="#2F2E41"/>
<path d="M120.907 247.437L122.781 200.277L117.914 178.935C111.364 167.934 118.43 150.385 118.502 150.209L118.529 150.145L118.597 150.136L135.73 147.81L135.971 148.364C142.672 163.713 144.532 180.747 141.301 197.184L139.518 206.321L148.331 241.969L139.99 246.147L133.591 229.522L129.265 246.532L120.907 247.437Z" fill="#2F2E41"/>
<path d="M116.246 154.583L110.656 138.176C107.182 132.046 109.386 126.603 111.846 123.117C114.504 119.353 114.664 117.242 114.699 117.218L114.727 117.199L122.071 116.977L128.867 123.895C129.295 123.728 132.906 132.643 132.6 133.092L137.347 148.464L116.246 154.583Z" fill="#CBCBCB"/>
<path d="M161.504 157.421L143.091 143.153L128.892 126.365L122.76 132.356L139.537 149.679L159.553 161.228C159.701 161.906 160.053 162.522 160.564 162.992C161.074 163.462 161.716 163.762 162.403 163.852C163.09 163.942 163.788 163.817 164.401 163.495C165.015 163.172 165.514 162.668 165.83 162.05C166.146 161.433 166.265 160.732 166.168 160.045C166.072 159.358 165.767 158.717 165.293 158.21C164.819 157.703 164.201 157.356 163.523 157.215C162.845 157.073 162.139 157.145 161.504 157.421Z" fill="#9F616A"/>
<path d="M121.018 138.427L115.888 131.124C114.905 129.726 114.494 128.004 114.738 126.312C114.981 124.619 115.862 123.084 117.199 122.021C118.536 120.958 120.229 120.448 121.929 120.595C123.63 120.741 125.21 121.534 126.346 122.81L132.919 130.194L121.018 138.427Z" fill="#CBCBCB"/>
<path d="M117.535 114.965C122.352 114.965 126.256 111.053 126.256 106.228C126.256 101.403 122.352 97.4919 117.535 97.4919C112.719 97.4919 108.815 101.403 108.815 106.228C108.815 111.053 112.719 114.965 117.535 114.965Z" fill="#9F616A"/>
<path d="M126.402 101.796H112.555V95.7493C115.594 94.5397 118.569 93.5109 120.366 95.7493C121.967 95.7493 123.502 96.3864 124.634 97.5204C125.766 98.6545 126.402 100.193 126.402 101.796Z" fill="#2F2E41"/>
<path d="M114.464 94.2994C101.777 93.9523 104.179 114.892 104.179 114.892C104.179 114.892 106.573 115.209 107.665 115.395L108.984 114.651L110.403 115.583C111.055 115.587 111.74 115.574 112.449 115.561L113.1 114.219L114.551 115.537C117.192 115.541 124.36 115.614 124.36 115.614C124.36 115.614 128.679 94.6883 114.464 94.2994Z" fill="#2F2E41"/>
<path d="M63.346 130.176C63.3961 129.766 63.356 129.351 63.2284 128.959C63.1009 128.566 62.889 128.207 62.6078 127.905C62.3266 127.604 61.9828 127.368 61.6007 127.214C61.2187 127.06 60.8075 126.992 60.3964 127.015L57.609 121.202L53.6699 122.038L57.7213 130.191C57.8049 130.88 58.138 131.515 58.6575 131.975C59.1771 132.435 59.847 132.688 60.5403 132.686C61.2336 132.684 61.9022 132.428 62.4193 131.965C62.9364 131.502 63.2661 130.866 63.346 130.176Z" fill="#FFB7B7"/>
<path d="M2.83423 197.664L6.11262 199.345L14.1444 187.476L9.30571 184.995L2.83423 197.664Z" fill="#FFB7B7"/>
<path d="M2.54592 196.163L9.00238 199.473C10.0935 200.032 10.9184 201.003 11.2951 202.172C11.6718 203.341 11.5697 204.611 11.0113 205.704L10.9429 205.838L0.371826 200.419L2.54592 196.163Z" fill="#2F2E41"/>
<path d="M40.699 202.262H44.3815L46.1334 188.031L40.698 188.031L40.699 202.262Z" fill="#FFB7B7"/>
<path d="M39.7594 201.057L47.0122 201.057C48.238 201.057 49.4139 201.545 50.2807 202.413C51.1474 203.282 51.6344 204.459 51.6345 205.687V205.838L39.7596 205.838L39.7594 201.057Z" fill="#2F2E41"/>
<path d="M23.472 86.1829C23.472 86.1829 21.0058 84.2901 21.0058 88.9137L20.6165 104.193L24.9647 118.627L27.4958 113.946L26.4574 103.803L23.472 86.1829Z" fill="#FCA087"/>
<path d="M49.853 127.974C49.853 127.974 52.7128 141.927 49.0904 153.377L47.0886 197.403L39.7484 196.83L37.1746 164.169L34.6961 147.934L29.5485 162.736L12.5804 194.06L4.76367 187.948C4.76367 187.948 13.4259 164.27 19.8252 159.298L23.0347 122.677L49.853 127.974Z" fill="#2F2E41"/>
<path d="M41.1524 67.5282C45.7747 67.5282 49.5217 63.7743 49.5217 59.1436C49.5217 54.5129 45.7747 50.759 41.1524 50.759C36.5302 50.759 32.7831 54.5129 32.7831 59.1436C32.7831 63.7743 36.5302 67.5282 41.1524 67.5282Z" fill="#FFB8B8"/>
<path d="M40.5601 60.9221C41.5634 61.0529 42.3202 60.0245 42.6712 59.0739C43.0222 58.1233 43.2896 57.0166 44.1619 56.5031C45.3536 55.8015 46.8784 56.6453 48.2412 56.4138C49.7802 56.1524 50.7808 54.5184 50.8592 52.9566C50.9377 51.3947 50.3173 49.8926 49.7085 48.4526L49.496 50.2422C49.5244 49.6356 49.397 49.0319 49.126 48.4888C48.855 47.9457 48.4494 47.4813 47.948 47.1401L48.2219 49.7661C48.1636 49.4038 48.0345 49.0566 47.8419 48.7444C47.6494 48.4323 47.3972 48.1613 47.0998 47.947C46.8024 47.7327 46.4657 47.5794 46.1091 47.4958C45.7524 47.4122 45.3827 47.4 45.0214 47.4599L45.0645 49.0245C43.2939 48.7511 41.4998 48.6631 39.711 48.7621C37.9102 48.8664 36.1869 49.5316 34.7817 50.6648C32.7605 52.4243 32.0223 55.3215 32.2701 57.9925C32.518 60.6636 33.6186 63.1729 34.7656 65.5968C35.0542 66.2067 35.4534 66.8949 36.1226 66.9726C36.4261 66.9768 36.7223 66.8798 36.9646 66.6969C37.2069 66.5139 37.3816 66.2554 37.4611 65.962C37.6051 65.3702 37.5995 64.7517 37.4449 64.1626C37.208 63.2758 37.1324 62.3535 37.2216 61.4399C37.3806 60.5377 38.0284 59.6462 38.9362 59.5356C39.8439 59.4251 40.7728 60.4646 40.3364 61.2696L40.5601 60.9221Z" fill="#2F2E41"/>
<path d="M33.1421 70.5786L34.8944 68.1414C34.8944 68.1414 36.853 68.8082 42.0983 71.4238L42.4689 73.7073L51.5736 129.81L35.0242 129.095L30.5175 128.999L27.2241 128.928L22.8231 128.835L22.7582 112.71L24.186 100.357L21.9794 88.7186C21.9794 88.7186 19.2028 78.0314 29.8972 72.269L33.1421 70.5786Z" fill="#FCA087"/>
<path d="M56.0781 127.191L56.6791 129.298L60.8844 126.554L59.2974 124.734L56.0781 127.191Z" fill="#CBCBCB"/>
<path d="M36.2726 77.3593C36.2726 77.3593 42.7917 69.0214 46.7319 78.3143L47.9742 88.0529C47.9742 88.0529 52.7475 100.158 52.891 105.055C52.891 105.055 56.1272 111.447 56.0975 114.805L60.8847 125.662L55.9746 128.716L42.3856 107.842L36.2726 77.3593Z" fill="#FCA087"/>
</g>
<defs>
<clipPath id="clip0_259_51">
<rect width="220" height="257" fill="white"/>
</clipPath>
</defs>
</svg>
