<svg width="317" height="244" viewBox="0 0 317 244" fill="none" xmlns="http://www.w3.org/2000/svg">
<g clip-path="url(#clip0_255_2)">
<path d="M283.575 244.03V205.066C283.575 205.066 298.773 232.69 283.575 244.03Z" fill="#F1F1F1"/>
<path d="M284.514 244.023L255.784 217.673C255.784 217.673 286.431 225.168 284.514 244.023Z" fill="#F1F1F1"/>
<path d="M173.066 157.095C173.034 156.726 173.081 156.354 173.202 156.005C173.324 155.656 173.518 155.34 173.77 155.077C174.022 154.815 174.327 154.613 174.662 154.486C174.998 154.359 175.356 154.309 175.712 154.342L178.292 149.201L181.682 150.067L177.94 157.274C177.849 157.891 177.542 158.452 177.079 158.85C176.615 159.248 176.028 159.455 175.427 159.433C174.826 159.411 174.254 159.161 173.819 158.73C173.383 158.299 173.116 157.718 173.066 157.095Z" fill="#FFB7B7"/>
<path d="M191.316 237.82L185.573 237.82L182.841 215.688L191.318 215.689L191.316 237.82Z" fill="#FFB7B7"/>
<path d="M192.781 243.382L174.263 243.381V243.147C174.263 241.238 175.023 239.406 176.374 238.056C177.726 236.705 179.559 235.946 181.471 235.946L192.781 235.947L192.781 243.382Z" fill="#2F2E41"/>
<path d="M237.507 233.534L231.966 235.043L223.501 214.409L231.679 212.181L237.507 233.534Z" fill="#FFB7B7"/>
<path d="M240.384 238.515L222.519 243.382L222.457 243.156C221.954 241.314 222.205 239.347 223.153 237.689C224.101 236.031 225.67 234.817 227.514 234.314L238.427 231.341L240.384 238.515Z" fill="#2F2E41"/>
<path d="M180.832 142.216L177.967 185.681L184.121 234.445L194.201 231.371L194.626 187.801L202.689 162.676L226.563 229.781L237.492 225.753L228.473 182.182L223.38 141.262L180.832 142.216Z" fill="#2F2E41"/>
<path d="M208.683 65.8931L191.709 68.3938L185.594 74.4362L183.695 96.1467L184.874 115.377L179.958 149.289C179.958 149.289 192.32 142.432 201.901 151.015C211.481 159.598 224.886 152.532 225.162 146.822L208.683 65.8931Z" fill="#CBCBCB"/>
<path d="M200.064 93.1216L200.063 93.0973L208.496 65.6357L208.605 65.6286C209.205 65.5895 223.343 64.7571 226.505 71.7313L226.52 71.7649L225.56 100.303L226.882 144.999L200.735 150.657L200.545 150.698L200.064 93.1216Z" fill="#2F2E41"/>
<path d="M190.719 91.2233L192.266 67.9431C181.264 68.6269 181.43 76.42 181.443 76.7598L181.322 111.582L179.119 148.836L187.13 148.236L190.719 91.2233Z" fill="#2F2E41"/>
<path d="M175.752 153.095L180.718 141.217L184.185 134.658L185.995 146.49L179.711 156.203L175.752 153.095Z" fill="#2F2E41"/>
<path d="M206.277 125.25C206.427 124.55 206.728 123.891 207.16 123.319C207.593 122.748 208.145 122.278 208.778 121.943C209.412 121.607 210.111 121.415 210.827 121.379C211.543 121.343 212.258 121.465 212.922 121.735L220.802 113.776L226.811 117.38L215.525 128.464C214.997 129.548 214.089 130.401 212.974 130.862C211.858 131.322 210.612 131.357 209.472 130.961C208.333 130.565 207.378 129.765 206.789 128.712C206.2 127.66 206.018 126.428 206.277 125.25Z" fill="#FFB7B7"/>
<path d="M212.904 118.829L228.97 101.22L218.335 86.0585L219.43 78.6459L225.698 70.9099L225.82 71.0679C226.488 71.9317 242.189 92.3112 242.64 100.026C243.092 107.77 220.525 127.357 219.564 128.187L219.43 128.302L212.904 118.829Z" fill="#2F2E41"/>
<path d="M198.889 63.9858C205.195 63.9858 210.308 58.8779 210.308 52.5769C210.308 46.2759 205.195 41.168 198.889 41.168C192.582 41.168 187.469 46.2759 187.469 52.5769C187.469 58.8779 192.582 63.9858 198.889 63.9858Z" fill="#FFB7B7"/>
<path d="M209.628 43.456L210.182 42.3428L207.397 40.96C207.397 40.96 204.324 35.9646 198.763 37.3684C193.203 38.7722 190.701 39.6124 190.701 39.6124L187.922 41.0092L189.317 42.3955L186.815 43.2357L188.486 44.0653L186.542 45.182L187.589 50.9068C187.589 50.9068 189.327 46.5648 192.67 48.224C196.013 49.8833 202.127 47.3663 202.127 47.3663L207.439 57.6373C207.439 57.6373 208.535 54.0368 210.488 54.9968C210.488 54.9968 215.48 47.0546 209.628 43.456Z" fill="#2F2E41"/>
<path d="M131.544 139.623L41.9143 164.283L12.3997 57.5164L102.03 32.8564L131.544 139.623Z" fill="white"/>
<path d="M131.544 139.623L41.9143 164.283L12.3997 57.5164L102.03 32.8564L131.544 139.623ZM43.0595 162.27L129.527 138.48L100.884 34.8689L14.4169 58.6588L43.0595 162.27Z" fill="#F1F1F1"/>
<path d="M82.6494 80.998L60.0908 87.2138C59.7726 87.3011 59.4327 87.2587 59.1457 87.0959C58.8588 86.9331 58.6481 86.6633 58.56 86.3455L52.3387 63.8072C52.2513 63.4893 52.2937 63.1497 52.4566 62.863C52.6195 62.5762 52.8896 62.3658 53.2077 62.2778L75.7662 56.062C76.0845 55.9747 76.4244 56.0171 76.7113 56.1799C76.9983 56.3426 77.209 56.6125 77.2971 56.9302L83.5184 79.4685C83.6058 79.7865 83.5634 80.1261 83.4005 80.4128C83.2375 80.6995 82.9674 80.91 82.6494 80.998ZM53.34 62.7573C53.1492 62.8101 52.9871 62.9364 52.8894 63.1084C52.7916 63.2805 52.7662 63.4842 52.8186 63.675L59.04 86.2133C59.0928 86.404 59.2192 86.5659 59.3914 86.6635C59.5636 86.7612 59.7675 86.7866 59.9585 86.7342L82.517 80.5185C82.7078 80.4657 82.8699 80.3394 82.9677 80.1674C83.0654 79.9953 83.0909 79.7916 83.0384 79.6008L76.8171 57.0625C76.7642 56.8719 76.6378 56.7099 76.4656 56.6123C76.2934 56.5146 76.0895 56.4892 75.8986 56.5416L53.34 62.7573Z" fill="#E5E5E5"/>
<path d="M76.8183 85.37L54.4708 91.5276C54.187 91.6054 53.884 91.5676 53.6281 91.4225C53.3722 91.2774 53.1844 91.0368 53.1059 90.7535L46.9427 68.4261C46.8648 68.1426 46.9026 67.8398 47.0479 67.5842C47.1931 67.3286 47.434 67.1409 47.7175 67.0624L70.065 60.9049C70.3487 60.827 70.6518 60.8648 70.9077 61.0099C71.1635 61.155 71.3513 61.3956 71.4299 61.6789L77.593 84.0064C77.6709 84.2898 77.6331 84.5926 77.4879 84.8482C77.3426 85.1039 77.1018 85.2915 76.8183 85.37Z" fill="#6C63FF"/>
<path d="M102.849 88.389L40.1562 105.663L40.8244 108.084L103.517 90.8095L102.849 88.389Z" fill="#F1F1F1"/>
<path d="M104.591 94.6998L41.8983 111.974L42.5665 114.395L105.26 97.1203L104.591 94.6998Z" fill="#F1F1F1"/>
<path d="M106.333 101.011L43.6404 118.285L44.3085 120.706L107.002 103.431L106.333 101.011Z" fill="#F1F1F1"/>
<path d="M109.399 112.118L46.7064 129.393L47.3746 131.813L110.068 114.539L109.399 112.118Z" fill="#F1F1F1"/>
<path d="M111.142 118.429L48.4485 135.704L49.1166 138.124L111.81 120.85L111.142 118.429Z" fill="#F1F1F1"/>
<path d="M112.884 124.74L50.1904 142.015L50.8586 144.435L113.552 127.161L112.884 124.74Z" fill="#F1F1F1"/>
<path d="M160.117 164.283H67.3894V53.3245H160.117V164.283Z" fill="white"/>
<path d="M160.117 164.283H67.3894V53.3245H160.117V164.283ZM69.0253 162.643H158.481V54.9639H69.0253V162.643Z" fill="#E5E5E5"/>
<path d="M143.405 100.724H90.0323V103.417H143.405V100.724Z" fill="#6C63FF"/>
<path d="M143.405 107.188H90.0323V109.881H143.405V107.188Z" fill="#6C63FF"/>
<path d="M143.405 114.19H90.0323V116.344H143.405V114.19Z" fill="#6C63FF"/>
<path d="M85.7194 103.956C86.6126 103.956 87.3367 103.232 87.3367 102.34C87.3367 101.448 86.6126 100.724 85.7194 100.724C84.8262 100.724 84.1021 101.448 84.1021 102.34C84.1021 103.232 84.8262 103.956 85.7194 103.956Z" fill="#6C63FF"/>
<path d="M143.405 72.7153H90.0323V75.4085H143.405V72.7153Z" fill="#E5E5E5"/>
<path d="M143.405 79.1787H90.0323V81.8719H143.405V79.1787Z" fill="#E5E5E5"/>
<path d="M143.405 85.6423H90.0323V88.3355H143.405V85.6423Z" fill="#E5E5E5"/>
<path d="M85.7194 75.9471C86.6126 75.9471 87.3367 75.2237 87.3367 74.3312C87.3367 73.4388 86.6126 72.7153 85.7194 72.7153C84.8262 72.7153 84.1021 73.4388 84.1021 74.3312C84.1021 75.2237 84.8262 75.9471 85.7194 75.9471Z" fill="#E5E5E5"/>
<path d="M143.405 129.271H90.0323V131.965H143.405V129.271Z" fill="#E5E5E5"/>
<path d="M143.405 135.735H90.0323V138.428H143.405V135.735Z" fill="#E5E5E5"/>
<path d="M143.405 142.199H90.0323V144.892H143.405V142.199Z" fill="#E5E5E5"/>
<path d="M85.7194 132.503C86.6126 132.503 87.3367 131.78 87.3367 130.887C87.3367 129.995 86.6126 129.271 85.7194 129.271C84.8262 129.271 84.1021 129.995 84.1021 130.887C84.1021 131.78 84.8262 132.503 85.7194 132.503Z" fill="#E5E5E5"/>
<path d="M155.804 173.439C166.226 173.439 174.674 164.999 174.674 154.587C174.674 144.175 166.226 135.735 155.804 135.735C145.383 135.735 136.935 144.175 136.935 154.587C136.935 164.999 145.383 173.439 155.804 173.439Z" fill="#6C63FF"/>
<path d="M161.297 153.363V149.684C161.298 148.984 161.163 148.291 160.901 147.644C160.639 146.998 160.254 146.41 159.769 145.915C159.284 145.42 158.708 145.027 158.074 144.759C157.44 144.491 156.76 144.353 156.074 144.353C155.388 144.353 154.708 144.491 154.074 144.759C153.44 145.027 152.864 145.42 152.379 145.915C151.894 146.41 151.509 146.998 151.247 147.644C150.985 148.291 150.85 148.984 150.851 149.684V153.363C150.152 153.395 149.493 153.7 149.01 154.215C148.527 154.73 148.257 155.415 148.257 156.128V164.821H163.891V156.128C163.891 155.415 163.621 154.73 163.138 154.215C162.655 153.7 161.996 153.395 161.297 153.363ZM156.074 146.233C156.971 146.234 157.831 146.598 158.466 147.245C159.1 147.892 159.457 148.769 159.458 149.684V153.356H152.69V149.684C152.691 148.769 153.048 147.892 153.682 147.245C154.317 146.598 155.177 146.234 156.074 146.233Z" fill="white"/>
<path d="M157.422 157.685C157.422 157.429 157.362 157.178 157.248 156.956C157.133 156.734 156.969 156.547 156.77 156.416C156.571 156.284 156.344 156.211 156.112 156.204C155.879 156.197 155.649 156.256 155.444 156.375C155.238 156.494 155.065 156.67 154.939 156.885C154.814 157.1 154.741 157.347 154.728 157.602C154.715 157.857 154.763 158.111 154.866 158.34C154.969 158.569 155.124 158.765 155.316 158.909V162.128H156.832V158.909C157.014 158.773 157.162 158.591 157.265 158.377C157.368 158.164 157.422 157.926 157.422 157.685Z" fill="#6C63FF"/>
<path d="M316.204 243.812H110.801C110.658 243.812 110.521 243.755 110.42 243.654C110.319 243.553 110.262 243.416 110.262 243.273C110.262 243.13 110.319 242.993 110.42 242.892C110.521 242.791 110.658 242.734 110.801 242.734H316.204C316.347 242.734 316.484 242.791 316.585 242.892C316.686 242.993 316.743 243.13 316.743 243.273C316.743 243.416 316.686 243.553 316.585 243.654C316.484 243.755 316.347 243.812 316.204 243.812Z" fill="#CBCBCB"/>
</g>
<defs>
<clipPath id="clip0_255_2">
<rect width="317" height="244" fill="white"/>
</clipPath>
</defs>
</svg>
