<svg width="225" height="169" viewBox="0 0 225 169" fill="none" xmlns="http://www.w3.org/2000/svg">
<g clip-path="url(#clip0_265_5)">
<path d="M130.596 145.126L130.163 135.379C125.645 132.964 120.606 131.688 115.483 131.663C122.534 137.428 121.652 148.541 126.432 156.294C127.942 158.701 129.973 160.737 132.376 162.252C134.779 163.766 137.492 164.721 140.314 165.044L146.214 168.657C147.024 164.143 146.845 159.507 145.691 155.069C144.537 150.63 142.434 146.495 139.528 142.947C137.878 140.973 135.986 139.215 133.897 137.714C132.484 141.44 130.596 145.126 130.596 145.126Z" fill="#F2F2F2"/>
<path d="M-60.2519 -22.5298H128.266C129.195 -22.5297 130.086 -22.1609 130.743 -21.5044C131.4 -20.8478 131.77 -19.9572 131.771 -19.0281V69.9771C131.77 70.9066 131.401 71.7978 130.743 72.4551C130.086 73.1123 129.195 73.482 128.266 73.4831H-60.2519C-61.1806 73.4811 -62.0706 73.111 -62.7269 72.4538C-63.3831 71.7966 -63.7521 70.9059 -63.7529 69.9771V-19.0281C-63.7519 -19.9565 -63.3828 -20.8466 -62.7264 -21.5031C-62.0701 -22.1596 -61.1801 -22.5288 -60.2519 -22.5298Z" fill="#3F3D56"/>
<path d="M159.235 164.02L154.314 164.019L151.974 145.037H159.236L159.235 164.02Z" fill="#FFB6B6"/>
<path d="M160.49 162.413L159.105 162.413L153.698 160.214L150.8 162.413C149.162 162.413 147.591 163.063 146.433 164.222C145.275 165.38 144.624 166.951 144.624 168.589V168.79L160.49 168.79L160.49 162.413Z" fill="#2F2E41"/>
<path d="M203.694 157.621L199.29 159.817L188.729 143.872L195.228 140.632L203.694 157.621Z" fill="#FFB6B6"/>
<path d="M204.101 155.623L202.861 156.241L197.041 156.685L195.428 159.946C193.962 160.677 192.846 161.961 192.327 163.514C191.807 165.067 191.925 166.764 192.656 168.23L192.745 168.409L206.945 161.331L204.101 155.623Z" fill="#2F2E41"/>
<path d="M157.055 77.8079L188.34 78.6242L187.796 93.8618C187.796 93.8618 188.34 97.9433 187.252 99.0317C186.164 100.12 185.62 100.12 186.164 102.025C186.708 103.929 188.114 122.128 188.114 122.128C188.114 122.128 200.955 144.837 200.411 145.381C199.867 145.925 199.323 145.381 199.867 146.741C200.411 148.102 200.955 147.558 200.411 148.102C199.929 148.622 199.475 149.167 199.051 149.735H190.183C190.183 149.735 189.687 147.014 189.687 146.741C189.687 146.469 189.143 144.837 189.143 144.565C189.143 144.293 173.65 127.874 173.65 127.874L170.385 100.664L162.496 127.33C162.496 127.33 162.496 150.731 161.951 151.275C161.407 151.819 161.407 151.547 161.679 152.635C161.951 153.724 163.04 153.452 162.224 154.268C161.407 155.084 161.135 153.724 161.407 155.084L161.679 156.445L151.228 156.562C151.228 156.562 150.139 154.268 150.684 153.452C151.228 152.635 151.195 152.858 150.531 151.522C149.867 150.186 149.595 149.914 149.867 149.642C150.139 149.37 150.139 147.923 150.139 147.923C150.139 147.923 154.062 94.406 154.062 93.5897C154.083 93.1696 154.005 92.7506 153.836 92.3656V91.2576L154.878 87.3314L157.055 77.8079Z" fill="#2F2E41"/>
<path d="M30.4561 52.6599H76.0686C76.9979 52.6609 77.8889 53.0306 78.546 53.6879C79.2032 54.3452 79.5728 55.2364 79.5739 56.1659V73.483H26.9551V56.1659C26.9559 55.237 27.3249 54.3464 27.9811 53.6892C28.6374 53.032 29.5274 52.6618 30.4561 52.6599Z" fill="#6C63FF"/>
<path opacity="0.5" d="M30.4576 101.318H76.0701C76.9991 101.317 77.8896 100.947 78.5465 100.29C79.2033 99.6334 79.5728 98.7427 79.5739 97.8136V56.1642C79.5728 55.2351 79.2033 54.3444 78.5465 53.6874C77.8896 53.0305 76.999 52.6609 76.0701 52.6599H30.4576C29.5287 52.6609 28.6381 53.0305 27.9813 53.6874C27.3244 54.3444 26.9549 55.2351 26.9539 56.1642V97.8136C26.9549 98.7427 27.3244 99.6334 27.9813 100.29C28.6381 100.947 29.5287 101.317 30.4576 101.318Z" fill="#5D72E7"/>
<path d="M62.6315 72.4016C59.4914 72.4016 56.9459 69.8556 56.9459 66.715C56.9459 63.5743 59.4914 61.0283 62.6315 61.0283C65.7715 61.0283 68.317 63.5743 68.317 66.715C68.317 69.8556 65.7715 72.4016 62.6315 72.4016Z" fill="white"/>
<path d="M39.9044 81.0449H66.6238C67.0729 81.0449 67.5035 80.8665 67.821 80.549C68.1385 80.2314 68.3169 79.8007 68.3169 79.3516C68.3169 78.9024 68.1385 78.4717 67.821 78.1542C67.5035 77.8366 67.0729 77.6582 66.6238 77.6582H39.9044C39.4554 77.6582 39.0248 77.8366 38.7073 78.1542C38.3897 78.4717 38.2114 78.9024 38.2114 79.3516C38.2114 79.8007 38.3897 80.2314 38.7073 80.549C39.0248 80.8665 39.4554 81.0449 39.9044 81.0449Z" fill="white"/>
<path d="M53.7304 87.7363H66.6239C67.0729 87.7363 67.5036 87.5578 67.8211 87.2403C68.1386 86.9227 68.317 86.4919 68.317 86.0428C68.317 85.5937 68.1386 85.1629 67.8211 84.8454C67.5036 84.5278 67.0729 84.3494 66.6239 84.3494H53.7304C53.2814 84.3494 52.8507 84.5278 52.5332 84.8454C52.2157 85.1629 52.0373 85.5937 52.0373 86.0428C52.0373 86.4919 52.2157 86.9227 52.5332 87.2403C52.8507 87.5578 53.2814 87.7363 53.7304 87.7363Z" fill="white"/>
<path d="M77.0211 113.542C79.3954 113.542 81.7164 112.838 83.6906 111.518C85.6648 110.199 87.2036 108.324 88.1122 106.13C89.0208 103.936 89.2585 101.521 88.7953 99.1921C88.3321 96.8629 87.1887 94.7235 85.5098 93.0442C83.8309 91.365 81.6918 90.2214 79.3631 89.7581C77.0344 89.2948 74.6206 89.5325 72.427 90.4413C70.2334 91.3501 68.3584 92.8892 67.0393 94.8637C65.7202 96.8383 65.0161 99.1598 65.0161 101.535C65.0161 104.719 66.2809 107.773 68.5323 110.025C70.7837 112.277 73.8372 113.542 77.0211 113.542Z" fill="#6C63FF"/>
<path d="M109.005 53.0145C111.379 53.0145 113.7 52.3103 115.675 50.9909C117.649 49.6716 119.187 47.7963 120.096 45.6023C121.005 43.4082 121.242 40.994 120.779 38.6648C120.316 36.3356 119.173 34.1961 117.494 32.5169C115.815 30.8376 113.676 29.694 111.347 29.2307C109.018 28.7674 106.604 29.0052 104.411 29.914C102.217 30.8228 100.342 32.3618 99.0232 34.3364C97.7041 36.311 97 38.6325 97 41.0073C97 44.1918 98.2648 47.2459 100.516 49.4977C102.768 51.7495 105.821 53.0145 109.005 53.0145Z" fill="#6C63FF"/>
<path d="M72.2843 100.35H75.8369V96.7967C75.8369 96.4826 75.9616 96.1813 76.1837 95.9592C76.4058 95.7371 76.707 95.6123 77.0211 95.6123C77.3352 95.6123 77.6364 95.7371 77.8585 95.9592C78.0806 96.1813 78.2053 96.4826 78.2053 96.7967V100.35H81.758C81.9137 100.35 82.0679 100.38 82.2119 100.44C82.3558 100.499 82.4866 100.586 82.5968 100.696C82.707 100.806 82.7944 100.937 82.8541 101.081C82.9137 101.225 82.9445 101.379 82.9445 101.535C82.9445 101.69 82.9137 101.844 82.8541 101.988C82.7944 102.132 82.707 102.263 82.5968 102.373C82.4866 102.483 82.3558 102.57 82.2119 102.629C82.0679 102.689 81.9137 102.719 81.758 102.719H78.2053V106.272C78.2053 106.586 78.0806 106.888 77.8585 107.11C77.6364 107.332 77.3352 107.457 77.0211 107.457C76.707 107.457 76.4058 107.332 76.1837 107.11C75.9616 106.888 75.8369 106.586 75.8369 106.272V102.719H72.2843C71.9702 102.719 71.669 102.594 71.4469 102.372C71.2248 102.15 71.1001 101.849 71.1001 101.535C71.1001 101.22 71.2248 100.919 71.4469 100.697C71.669 100.475 71.9702 100.35 72.2843 100.35Z" fill="white"/>
<path d="M104.268 39.8228H107.821V36.2694C107.821 35.9553 107.946 35.654 108.168 35.4319C108.39 35.2097 108.691 35.085 109.005 35.085C109.319 35.085 109.62 35.2097 109.842 35.4319C110.064 35.654 110.189 35.9553 110.189 36.2694V39.8228H113.742C113.898 39.8225 114.052 39.8529 114.196 39.9123C114.34 39.9717 114.47 40.0589 114.581 40.1689C114.691 40.2789 114.778 40.4096 114.838 40.5534C114.898 40.6973 114.928 40.8515 114.928 41.0072C114.928 41.1629 114.898 41.3171 114.838 41.461C114.778 41.6048 114.691 41.7355 114.581 41.8455C114.47 41.9555 114.34 42.0427 114.196 42.1021C114.052 42.1615 113.898 42.1919 113.742 42.1916H110.189V45.745C110.189 46.0591 110.064 46.3604 109.842 46.5825C109.62 46.8046 109.319 46.9294 109.005 46.9294C108.691 46.9294 108.39 46.8046 108.168 46.5825C107.946 46.3604 107.821 46.0591 107.821 45.745V42.1916H104.268C103.954 42.1916 103.653 42.0668 103.431 41.8447C103.209 41.6226 103.084 41.3213 103.084 41.0072C103.084 40.6931 103.209 40.3918 103.431 40.1697C103.653 39.9475 103.954 39.8228 104.268 39.8228Z" fill="white"/>
<path d="M82.5781 26.1825H128.191C129.12 26.1814 130.01 25.8119 130.667 25.1549C131.324 24.4979 131.693 23.6072 131.694 22.6781V-18.9713C131.693 -19.9004 131.324 -20.7911 130.667 -21.4481C130.01 -22.105 129.12 -22.4746 128.191 -22.4756H82.5781C81.6492 -22.4746 80.7586 -22.105 80.1018 -21.4481C79.4449 -20.7911 79.0754 -19.9004 79.0744 -18.9713V22.6781C79.0754 23.6072 79.4449 24.4979 80.1018 25.1549C80.7586 25.8119 81.6492 26.1814 82.5781 26.1825Z" fill="#6C63FF"/>
<path d="M114.752 0.741692C111.612 0.741692 109.066 -1.80431 109.066 -4.94495C109.066 -8.0856 111.612 -10.6316 114.752 -10.6316C117.892 -10.6316 120.437 -8.0856 120.437 -4.94495C120.437 -1.80431 117.892 0.741692 114.752 0.741692Z" fill="#6C63FF"/>
<path d="M92.0246 7.64723H118.744C119.193 7.64723 119.624 7.46882 119.941 7.15125C120.259 6.83369 120.437 6.40298 120.437 5.95387C120.437 5.50476 120.259 5.07404 119.941 4.75648C119.624 4.43891 119.193 4.2605 118.744 4.2605H92.0246C91.5756 4.2605 91.145 4.43891 90.8275 4.75648C90.51 5.07404 90.3316 5.50476 90.3316 5.95387C90.3316 6.40298 90.51 6.83369 90.8275 7.15125C91.145 7.46882 91.5756 7.64723 92.0246 7.64723Z" fill="#6C63FF"/>
<path d="M105.851 14.3386H118.744C119.193 14.3386 119.624 14.1601 119.941 13.8426C120.259 13.525 120.437 13.0942 120.437 12.6451C120.437 12.196 120.259 11.7652 119.941 11.4477C119.624 11.1301 119.193 10.9517 118.744 10.9517H105.851C105.401 10.9517 104.971 11.1301 104.653 11.4477C104.336 11.7652 104.157 12.196 104.157 12.6451C104.157 13.0942 104.336 13.525 104.653 13.8426C104.971 14.1601 105.401 14.3386 105.851 14.3386Z" fill="#6C63FF"/>
<path opacity="0.5" d="M82.5781 26.1825H128.191C129.12 26.1814 130.01 25.8119 130.667 25.1549C131.324 24.4979 131.693 23.6072 131.694 22.6781V-18.9713C131.693 -19.9004 131.324 -20.7911 130.667 -21.4481C130.01 -22.105 129.12 -22.4746 128.191 -22.4756H82.5781C81.6492 -22.4746 80.7586 -22.105 80.1018 -21.4481C79.4449 -20.7911 79.0754 -19.9004 79.0744 -18.9713V22.6781C79.0754 23.6072 79.4449 24.4979 80.1018 25.1549C80.7586 25.8119 81.6492 26.1814 82.5781 26.1825Z" fill="#6C63FF"/>
<path d="M114.752 0.741692C111.612 0.741692 109.066 -1.80431 109.066 -4.94495C109.066 -8.0856 111.612 -10.6316 114.752 -10.6316C117.892 -10.6316 120.437 -8.0856 120.437 -4.94495C120.437 -1.80431 117.892 0.741692 114.752 0.741692Z" fill="white"/>
<path d="M92.0246 7.64723H118.744C119.193 7.64723 119.624 7.46882 119.941 7.15125C120.259 6.83369 120.437 6.40298 120.437 5.95387C120.437 5.50476 120.259 5.07404 119.941 4.75648C119.624 4.43891 119.193 4.2605 118.744 4.2605H92.0246C91.5756 4.2605 91.145 4.43891 90.8275 4.75648C90.51 5.07404 90.3316 5.50476 90.3316 5.95387C90.3316 6.40298 90.51 6.83369 90.8275 7.15125C91.145 7.46882 91.5756 7.64723 92.0246 7.64723Z" fill="white"/>
<path d="M105.851 14.3386H118.744C119.193 14.3386 119.624 14.1601 119.941 13.8426C120.259 13.525 120.437 13.0942 120.437 12.6451C120.437 12.196 120.259 11.7652 119.941 11.4477C119.624 11.1301 119.193 10.9517 118.744 10.9517H105.851C105.401 10.9517 104.971 11.1301 104.653 11.4477C104.336 11.7652 104.157 12.196 104.157 12.6451C104.157 13.0942 104.336 13.525 104.653 13.8426C104.971 14.1601 105.401 14.3386 105.851 14.3386Z" fill="white"/>
<path d="M102.219 168.472C102.218 168.54 102.232 168.608 102.258 168.67C102.283 168.733 102.322 168.79 102.37 168.838C102.418 168.886 102.475 168.924 102.537 168.95C102.6 168.976 102.668 168.99 102.736 168.989H224.483C224.62 168.989 224.752 168.935 224.849 168.838C224.946 168.741 225 168.609 225 168.472C225 168.335 224.946 168.204 224.849 168.107C224.752 168.01 224.62 167.955 224.483 167.955H102.736C102.668 167.955 102.6 167.968 102.537 167.994C102.475 168.02 102.418 168.058 102.37 168.106C102.322 168.154 102.283 168.211 102.258 168.274C102.232 168.337 102.218 168.404 102.219 168.472Z" fill="#CCCCCC"/>
<path d="M129.199 1.55367C128.824 2.60233 128.876 3.7564 129.344 4.76701C129.812 5.77763 130.658 6.56383 131.701 6.95609C131.931 7.04221 132.169 7.10774 132.411 7.15192L134.82 21.9055L140.471 16.6867L137.317 3.47654C137.434 2.36338 137.108 1.24899 136.41 0.374279C135.711 -0.50043 134.697 -1.06517 133.586 -1.19786C132.651 -1.30504 131.708 -1.09105 130.91 -0.591043C130.113 -0.0910335 129.51 0.665291 129.199 1.55367Z" fill="#FFB6B6"/>
<path d="M170.904 34.9835C170.904 34.9835 166.518 29.1873 150.603 29.3461L141.569 26.0632L139.504 7.13428L132.278 8.8551L133.311 32.2581L148.795 41.2063L169.096 45.3363L170.904 34.9835Z" fill="#3F3D56"/>
<path d="M173.235 22.9085C168.018 22.9085 163.788 18.6784 163.788 13.4603C163.788 8.24229 168.018 4.01221 173.235 4.01221C178.452 4.01221 182.681 8.24229 182.681 13.4603C182.681 18.6784 178.452 22.9085 173.235 22.9085Z" fill="#FFB6B6"/>
<path d="M189.223 85.0986C189.239 85.0987 189.256 85.0964 189.272 85.0919C189.447 85.0431 189.584 85.0048 188.955 79.5616L188.276 75.2591L188.939 71.46L190.054 70.3443L188.262 68.5514L186.757 64.2773L189.36 60.4193L192.347 44.6417C192.86 41.9193 192.461 39.1034 191.212 36.6308C189.962 34.1582 187.932 32.167 185.436 30.966L181.979 29.9559L180.722 27.649C180.368 27.0012 179.848 26.4597 179.215 26.0807C178.583 25.7016 177.86 25.4988 177.122 25.4933L170.792 25.4459C170.154 25.4411 169.523 25.5844 168.949 25.8644C168.375 26.1444 167.873 26.5536 167.484 27.0599L165.276 29.9312L156.118 33.0426L157.636 65.7657C157.395 65.9676 157.199 66.2174 157.059 66.4992C156.919 66.7811 156.839 67.0888 156.825 67.4031C156.81 67.7173 156.861 68.0312 156.974 68.3248C157.087 68.6184 157.259 68.8854 157.48 69.1089C157.576 69.205 157.651 69.2832 157.698 69.3349C157.852 69.5542 157.563 71.1919 157.205 72.5825L156.746 74.7119C156.893 74.8171 157.017 74.9517 157.11 75.1072C157.202 75.2627 157.262 75.4356 157.284 75.6152C157.306 75.7948 157.291 75.977 157.24 76.1504C157.188 76.3239 157.101 76.4847 156.984 76.6228L156.399 77.3138C156.284 78.1802 156.516 79.0572 157.046 79.7523C157.576 80.4474 158.36 80.904 159.226 81.0219C167.595 82.1611 189.179 85.0986 189.223 85.0986Z" fill="#3F3D56"/>
<path d="M175.651 22.4457C175.692 22.3569 175.732 22.2677 175.772 22.1782C175.757 22.1787 175.741 22.1809 175.726 22.1814L175.651 22.4457Z" fill="#2F2E41"/>
<path d="M182.944 4.44177C182.495 4.01853 181.912 3.76643 181.297 3.72954C180.686 3.74923 180.066 4.30104 180.193 4.89908C179.071 2.91212 177.285 1.38391 175.149 0.582711C173.013 -0.218489 170.662 -0.241491 168.511 0.517746C166.993 1.05348 165.504 2.12527 165.155 3.69724C165.121 4.10995 164.998 4.51038 164.794 4.87092C164.618 5.06366 164.389 5.20056 164.136 5.26475C163.882 5.32894 163.616 5.31761 163.369 5.23218L163.354 5.22776C163.269 5.19889 163.178 5.19606 163.092 5.21962C163.006 5.24319 162.929 5.29206 162.87 5.35993C162.812 5.42781 162.776 5.51155 162.766 5.60033C162.756 5.68912 162.773 5.77885 162.814 5.85793L163.244 6.65923C162.703 6.77995 162.14 6.76799 161.604 6.62435C161.515 6.601 161.421 6.60577 161.335 6.63801C161.248 6.67024 161.174 6.72835 161.122 6.80438C161.071 6.88042 161.044 6.97063 161.045 7.06267C161.046 7.1547 161.076 7.24405 161.13 7.31845C161.844 8.29533 162.776 9.09206 163.852 9.64522C164.928 10.1984 166.118 10.4927 167.328 10.5048C169.045 10.4943 170.779 9.90269 172.449 10.2975C173.095 10.4502 173.699 10.7457 174.216 11.1622C174.733 11.5788 175.151 12.1059 175.438 12.7048C175.724 13.3038 175.874 13.9594 175.874 14.6235C175.875 15.2876 175.727 15.9435 175.441 16.5429C175.954 15.9815 176.946 16.1144 177.471 16.6648C177.712 16.9595 177.891 17.3006 177.996 17.6672C178.1 18.0337 178.128 18.4178 178.079 18.7956C177.939 19.953 177.595 21.0765 177.064 22.1142C179.093 22.0517 181.055 21.3677 182.684 20.1546C184.312 18.9414 185.529 17.2576 186.17 15.3305C186.812 13.4034 186.846 11.3259 186.269 9.37865C185.692 7.43139 184.531 5.70816 182.944 4.44177Z" fill="#2F2E41"/>
<path d="M185.543 98.6491C186.446 97.9977 187.057 97.0173 187.244 95.9194C187.431 94.8215 187.179 93.694 186.543 92.7801C186.402 92.5785 186.243 92.3897 186.068 92.2161L192.443 78.6948L184.83 79.7916L179.944 92.4635C179.217 93.3145 178.854 94.4174 178.934 95.5338C179.013 96.6503 179.529 97.6905 180.369 98.4297C181.079 99.0479 181.977 99.4063 182.918 99.4462C183.858 99.4861 184.783 99.205 185.543 98.6491Z" fill="#FFB6B6"/>
<path d="M187.473 91.2662L197.616 68.465L197.718 50.4564L194.521 40.7289C194.087 39.4092 193.393 38.1898 192.48 37.1429C191.567 36.0959 190.453 35.2427 189.205 34.6335C187.957 34.0244 186.599 33.6717 185.212 33.5964C183.825 33.521 182.437 33.7245 181.13 34.1948L181.06 34.2202L181.03 34.289C180.912 34.5649 178.23 41.1995 186.185 54.848L187.786 64.1871L182.169 85.5939L187.473 91.2662Z" fill="#3F3D56"/>
</g>
<defs>
<clipPath id="clip0_265_5">
<rect width="225" height="169" fill="white" transform="matrix(-1 0 0 1 225 0)"/>
</clipPath>
</defs>
</svg>
